<svg xmlns="http://www.w3.org/2000/svg" width="63.184" height="47.332" viewBox="0 0 63.184 47.332"><defs><style>.a{fill:#ef420c;}.b{fill:#fff;}</style></defs><g transform="translate(-15.064 -28.005)"><path class="a" d="M34.23,80.2h.1l12.647.248a1.248,1.248,0,0,1,.719.255,1.475,1.475,0,0,1,.438.614,1.554,1.554,0,0,1,.091.771,1.427,1.427,0,0,1-.333.751L36.438,96.349a1.483,1.483,0,0,1-.2.2,1.255,1.255,0,0,1-.229.15,1.488,1.488,0,0,1-.235.1,1,1,0,0,1-.242.052,1.407,1.407,0,0,1-.523-.039,1.29,1.29,0,0,1-.47-.242,1.333,1.333,0,0,1-.346-.418,1.385,1.385,0,0,1-.163-.581L32.917,81.787a1.549,1.549,0,0,1,.333-1.1,1.383,1.383,0,0,1,.431-.346A1.454,1.454,0,0,1,34.23,80.2Z" transform="translate(-7.936 -21.524)"/><path class="a" d="M76.271,33.25a3.083,3.083,0,0,1,1.365.3,3.682,3.682,0,0,1,1.142.862,4.314,4.314,0,0,1,.794,1.307,4.847,4.847,0,0,1,.348,1.581l1.122,22.792a4.77,4.77,0,0,1-.184,1.581,4.486,4.486,0,0,1-.656,1.372,3.862,3.862,0,0,1-1.024,1.013,3.18,3.18,0,0,1-1.313.516L25.881,72.531a5.05,5.05,0,0,1-2.028-.078,4.805,4.805,0,0,1-1.746-.817,4.542,4.542,0,0,1-1.254-1.411,4.373,4.373,0,0,1-.578-1.888l-2.4-28.789a4.8,4.8,0,0,1,1.286-3.7,5.108,5.108,0,0,1,1.614-1.143,5.322,5.322,0,0,1,2.034-.444Z" transform="translate(-2.8 -5.244)"/><g transform="translate(23.031 32.432)"><path class="b" d="M103.408,70.212a1.837,1.837,0,0,1,.464,0,.592.592,0,0,1,.307.15.758.758,0,0,1,.176.327,2.35,2.35,0,0,1,.078.523v.5a3.666,3.666,0,0,1,0,.536.844.844,0,0,1-.144.366.758.758,0,0,1-.287.229,1.81,1.81,0,0,1-.457.118l-.608.078a1.343,1.343,0,0,1-.457,0,.538.538,0,0,1-.307-.144.77.77,0,0,1-.183-.327,2.468,2.468,0,0,1-.078-.529v-.5a2.506,2.506,0,0,1,0-.542.844.844,0,0,1,.144-.366.811.811,0,0,1,.287-.229,1.561,1.561,0,0,1,.457-.111Z" transform="translate(-54.678 -50.613)"/><path class="b" d="M101.894,64.839l-.529-6.226a.833.833,0,0,1,0-.255.308.308,0,0,1,.072-.17.328.328,0,0,1,.144-.1.679.679,0,0,1,.229-.046l1.391-.124a.671.671,0,0,1,.229,0,.345.345,0,0,1,.157.072.368.368,0,0,1,.085.157.832.832,0,0,1,0,.255l.1,6.206v.261a.575.575,0,0,1-.065.176.344.344,0,0,1-.131.1.614.614,0,0,1-.216.052l-1,.124a1.26,1.26,0,0,1-.222,0,.259.259,0,0,1-.15-.078.392.392,0,0,1-.085-.163A1,1,0,0,1,101.894,64.839Z" transform="translate(-54.49 -46.35)"/><path class="b" d="M101.4,42.835a.345.345,0,0,1,.163,0,.176.176,0,0,1,.111.065.23.23,0,0,1,.065.124.916.916,0,0,1,0,.189l.046.869a.983.983,0,0,1,0,.2.253.253,0,0,1-.052.137.315.315,0,0,1-.1.078.684.684,0,0,1-.163,0l-2.188.118.046.869,1.751-.1a.373.373,0,0,1,.17,0,.206.206,0,0,1,.111.059.23.23,0,0,1,.065.124.606.606,0,0,1,.033.189l.046.928a.98.98,0,0,1,0,.2.324.324,0,0,1-.052.131.315.315,0,0,1-.1.078.491.491,0,0,1-.17.033l-1.744.111.046.934,2.26-.15a.345.345,0,0,1,.163,0,.332.332,0,0,1,.1.059.23.23,0,0,1,.065.124.916.916,0,0,1,0,.189l.046.875a.98.98,0,0,1,0,.2.266.266,0,0,1-.052.124.167.167,0,0,1-.1.078.345.345,0,0,1-.163,0l-3.547.274a.373.373,0,0,1-.17,0,.2.2,0,0,1-.118-.059.23.23,0,0,1-.065-.124.918.918,0,0,1,0-.189l-.32-6.134a.985.985,0,0,1,0-.2.472.472,0,0,1,.059-.131.314.314,0,0,1,.1-.078.738.738,0,0,1,.17,0Z" transform="translate(-53.178 -41.122)"/><path class="b" d="M92.447,41.793a1.258,1.258,0,0,1-.314,0,.386.386,0,0,1-.209-.111.488.488,0,0,1-.118-.222,1.7,1.7,0,0,1-.052-.366v-.078a1.715,1.715,0,0,1,0-.366.61.61,0,0,1,.091-.235.362.362,0,0,1,.2-.131,1.018,1.018,0,0,1,.314-.052h.052a.879.879,0,0,1,.32,0,.388.388,0,0,1,.2.111.511.511,0,0,1,.118.229,1.7,1.7,0,0,1,.052.366v.078a1.65,1.65,0,0,1,0,.359.457.457,0,0,1-.091.235.452.452,0,0,1-.2.131,1.2,1.2,0,0,1-.307.046Z" transform="translate(-51.158 -40.217)"/><path class="b" d="M95.561,59.025a.833.833,0,0,1,.255,0,.282.282,0,0,1,.17.085.336.336,0,0,1,.1.183,2.031,2.031,0,0,1,.039.287l.046.869v.359a1.322,1.322,0,0,1-.046.15,1.043,1.043,0,0,1-.065.15L92.85,67.191l3.214-.392a1.574,1.574,0,0,1,.248,0,.282.282,0,0,1,.17.085.364.364,0,0,1,.1.176,2.027,2.027,0,0,1,.039.287l.072,1.307a1.059,1.059,0,0,1,0,.287.505.505,0,0,1-.072.2.414.414,0,0,1-.157.124.821.821,0,0,1-.248.065l-6.075.817a.877.877,0,0,1-.261,0,.431.431,0,0,1-.176-.078.513.513,0,0,1-.1-.183,1.057,1.057,0,0,1-.046-.287l-.052-.9a.854.854,0,0,1,0-.183.737.737,0,0,1,0-.17,1.007,1.007,0,0,1,.046-.15,1.062,1.062,0,0,1,.072-.15l3.266-6.186-3.175.32a.876.876,0,0,1-.261,0,.353.353,0,0,1-.176-.091.429.429,0,0,1-.111-.189,1.154,1.154,0,0,1-.046-.3l-.078-1.346a1.156,1.156,0,0,1,0-.3.464.464,0,0,1,.085-.2.435.435,0,0,1,.163-.124,1.167,1.167,0,0,1,.261-.059Z" transform="translate(-50.214 -46.735)"/><path class="b" d="M93.894,48.507a.373.373,0,0,1,.17,0,.364.364,0,0,1,.111.059.23.23,0,0,1,.065.124.985.985,0,0,1,0,.2l.046.895a.5.5,0,0,1,0,.2.324.324,0,0,1-.052.131.18.18,0,0,1-.1.078.716.716,0,0,1-.17.039l-4.1.314a.8.8,0,0,1-.176,0,.2.2,0,0,1-.118-.059.235.235,0,0,1-.072-.131.983.983,0,0,1,0-.2l-.033-.608a.4.4,0,0,1,0-.124V49.31l.039-.1a.662.662,0,0,1,.046-.1l2.208-4.05-2.143.111a.4.4,0,0,1-.176,0,.261.261,0,0,1-.118-.065.368.368,0,0,1-.072-.131.736.736,0,0,1-.033-.209l-.052-.9a1.049,1.049,0,0,1,0-.2.472.472,0,0,1,.059-.131.2.2,0,0,1,.111-.078.8.8,0,0,1,.176,0l4.037-.189a.738.738,0,0,1,.17,0,.212.212,0,0,1,.118.065.249.249,0,0,1,.065.131.919.919,0,0,1,0,.189l.033.594v.34l-.039.1-2.175,4Z" transform="translate(-50.259 -41.273)"/><path class="b" d="M84.975,51.845a.672.672,0,0,1,.229,0,.3.3,0,0,1,.137.1.26.26,0,0,1,.046.157.634.634,0,0,1,0,.222l-.536,2.267a.5.5,0,0,1-.059.183.341.341,0,0,1-.091.124.325.325,0,0,1-.124.085l-.183.033-.51.039a.483.483,0,0,1-.137,0,.149.149,0,0,1-.078-.039.174.174,0,0,1-.091-.046.528.528,0,0,1,0-.144l.118-2.345a1.575,1.575,0,0,1,0-.248.38.38,0,0,1,.078-.163.292.292,0,0,1,.131-.1,1.01,1.01,0,0,1,.2-.039Z" transform="translate(-48.324 -44.246)"/><path class="b" d="M79.54,60.229a6.021,6.021,0,0,1,1.372,0A3.7,3.7,0,0,1,82,60.517a2.889,2.889,0,0,1,.836.588,3.594,3.594,0,0,1,.653.882,1.454,1.454,0,0,1,.1.281.452.452,0,0,1-.137.425,1.07,1.07,0,0,1-.242.17l-1.307.79-.091.052-.078.039H81.6a.355.355,0,0,1-.118,0,.219.219,0,0,1-.1-.065.476.476,0,0,1-.111-.118c-.039-.059-.078-.118-.111-.176a1.472,1.472,0,0,0-.261-.34.99.99,0,0,0-.333-.209,1.328,1.328,0,0,0-.392-.1,1.734,1.734,0,0,0-.451,0,3.744,3.744,0,0,0-.6.111,1.3,1.3,0,0,0-.4.183.734.734,0,0,0-.216.274.743.743,0,0,0-.052.359.583.583,0,0,0,.17.392.974.974,0,0,0,.405.216,3.07,3.07,0,0,0,.588.1h.7a10.176,10.176,0,0,1,1.254.118,3.7,3.7,0,0,1,1.2.405,2.383,2.383,0,0,1,.915.921,3.722,3.722,0,0,1,.438,1.666,3.542,3.542,0,0,1-.229,1.5,3.254,3.254,0,0,1-.8,1.182A4.374,4.374,0,0,1,81.774,71a6.692,6.692,0,0,1-1.666.451,6.484,6.484,0,0,1-1.424.046,3.849,3.849,0,0,1-1.2-.287,3.042,3.042,0,0,1-.941-.653,3,3,0,0,1-.653-.98.763.763,0,0,1-.085-.294.478.478,0,0,1,0-.235.465.465,0,0,1,.137-.2,1.285,1.285,0,0,1,.248-.17l1.307-.653.1-.046.085-.039h.163a.245.245,0,0,1,.137,0A.433.433,0,0,1,78.1,68a.5.5,0,0,1,.118.118.829.829,0,0,1,.118.176,1.279,1.279,0,0,0,.261.327,1.325,1.325,0,0,0,.359.209,1.832,1.832,0,0,0,.457.091,3.669,3.669,0,0,0,.536,0,4.866,4.866,0,0,0,.614-.124,1.966,1.966,0,0,0,.451-.2.909.909,0,0,0,.268-.3.769.769,0,0,0,.072-.418.533.533,0,0,0-.144-.359.81.81,0,0,0-.346-.2,2.391,2.391,0,0,0-.523-.1,3.919,3.919,0,0,1-.653-.039,7,7,0,0,1-1.307-.085,4.328,4.328,0,0,1-1.307-.366,2.489,2.489,0,0,1-1.045-.915,3.761,3.761,0,0,1-.5-1.751,3.58,3.58,0,0,1,.189-1.437,3.062,3.062,0,0,1,.745-1.169,3.825,3.825,0,0,1,1.267-.836A5.894,5.894,0,0,1,79.54,60.229Z" transform="translate(-45.534 -47.143)"/><path class="b" d="M79.311,43.857a.918.918,0,0,1,.189,0,.3.3,0,0,1,.124.072.271.271,0,0,1,.078.131,1.092,1.092,0,0,1,.033.2l.052.921a.563.563,0,0,1,0,.209.554.554,0,0,1-.059.144.235.235,0,0,1-.118.078.567.567,0,0,1-.183.033l-2.469.137.059.921,1.96-.118a.983.983,0,0,1,.2,0,.23.23,0,0,1,.124.065.534.534,0,0,1,.078.131.729.729,0,0,1,.033.2l.052.928a.562.562,0,0,1,0,.209.218.218,0,0,1-.059.137.221.221,0,0,1-.118.085.919.919,0,0,1-.189,0l-1.96.131.059.986,2.541-.17a.432.432,0,0,1,.183,0,.253.253,0,0,1,.2.189c.013.065.026.137.033.2l.052.934a.528.528,0,0,1,0,.2.26.26,0,0,1-.059.137.282.282,0,0,1-.111.085l-.183.033-4,.307a.463.463,0,0,1-.189,0,.227.227,0,0,1-.131-.065.253.253,0,0,1-.078-.124,1.118,1.118,0,0,1,0-.209l-.405-6.533a.564.564,0,0,1,0-.209.26.26,0,0,1,.059-.137.325.325,0,0,1,.124-.085.92.92,0,0,1,.189,0Z" transform="translate(-45.364 -41.478)"/><path class="b" d="M72.014,44.267a.856.856,0,0,1,.183,0,.284.284,0,0,1,.124.065.473.473,0,0,1,.072.124c.013.065.026.131.033.2l.412,6.611a.5.5,0,0,1,0,.2.26.26,0,0,1-.059.137.341.341,0,0,1-.111.078.8.8,0,0,1-.176,0l-1.143.085a.462.462,0,0,1-.189,0,.221.221,0,0,1-.124-.059.473.473,0,0,1-.072-.124.984.984,0,0,1,0-.2l-.425-6.657a1.049,1.049,0,0,1,0-.2.472.472,0,0,1,.059-.131.235.235,0,0,1,.118-.078.567.567,0,0,1,.183-.033Z" transform="translate(-43.802 -41.62)"/><path class="b" d="M69.416,61.385a1.106,1.106,0,0,1,.294,0,.553.553,0,0,1,.2.1.531.531,0,0,1,.124.189,1.21,1.21,0,0,1,.052.307l.085,1.4a1.313,1.313,0,0,1,0,.32.474.474,0,0,1-.091.222.451.451,0,0,1-.183.131,1.08,1.08,0,0,1-.287.065l-3.867.392.091,1.4,3.1-.333a.743.743,0,0,1,.294,0,.475.475,0,0,1,.2.091.442.442,0,0,1,.118.189,1.158,1.158,0,0,1,.052.3l.085,1.4a1.312,1.312,0,0,1,0,.32.485.485,0,0,1-.1.222.425.425,0,0,1-.183.137,1.08,1.08,0,0,1-.287.065l-3.09.366.1,1.509,3.972-.49a1.06,1.06,0,0,1,.287,0,.336.336,0,0,1,.189.085.343.343,0,0,1,.118.183,1.209,1.209,0,0,1,.052.307l.085,1.4a1.206,1.206,0,0,1,0,.307.442.442,0,0,1-.085.216.425.425,0,0,1-.183.137,1.419,1.419,0,0,1-.274.072L64,73.248a1.207,1.207,0,0,1-.307,0,.4.4,0,0,1-.209-.085.39.39,0,0,1-.124-.2,1.209,1.209,0,0,1-.052-.307l-.653-9.995a1.313,1.313,0,0,1,0-.32.485.485,0,0,1,.1-.222.493.493,0,0,1,.2-.131,1.176,1.176,0,0,1,.3-.065Z" transform="translate(-41.068 -47.554)"/><path class="b" d="M65.315,44.477a.982.982,0,0,1,.2,0,.32.32,0,0,1,.131.072.263.263,0,0,1,.078.137,1.077,1.077,0,0,1,.039.209l.425,6.631a.562.562,0,0,1,0,.209.29.29,0,0,1-.065.144.221.221,0,0,1-.118.085,1.041,1.041,0,0,1-.2.039l-1.111.085H64.44a.274.274,0,0,1-.091-.059.527.527,0,0,1-.078-.091l-1.718-2.424c-.124-.183-.229-.346-.32-.51s-.176-.32-.255-.483-.15-.34-.222-.536-.157-.4-.242-.653h-.078c.072.255.137.483.189.7s.1.412.15.653.072.418.1.653.052.49.078.79l.111,1.744a.6.6,0,0,1,0,.216.29.29,0,0,1-.065.144.324.324,0,0,1-.124.085.566.566,0,0,1-.209.039l-1.032.078a.528.528,0,0,1-.2,0,.29.29,0,0,1-.144-.065.3.3,0,0,1-.085-.137.562.562,0,0,1,0-.209l-.51-6.794a1.19,1.19,0,0,1,0-.216.408.408,0,0,1,.065-.144.3.3,0,0,1,.137-.085,1.011,1.011,0,0,1,.2-.039l1.215-.052h.268a.465.465,0,0,1,.091.065.417.417,0,0,1,.085.1l1.829,2.665c.124.183.222.34.307.49a3.354,3.354,0,0,1,.222.431l.2.451c.065.163.144.333.235.536h.085c-.1-.274-.183-.51-.255-.725s-.131-.412-.176-.608-.091-.405-.124-.614c0-.222-.052-.457-.072-.725L63.9,44.993a.562.562,0,0,1,0-.209.555.555,0,0,1,.059-.144.325.325,0,0,1,.124-.085,1.05,1.05,0,0,1,.2,0Z" transform="translate(-40.044 -41.693)"/><path class="b" d="M57.9,62.625a1.108,1.108,0,0,1,.294,0,.475.475,0,0,1,.2.091.516.516,0,0,1,.118.189,1.2,1.2,0,0,1,.046.307l.692,10.119a1.207,1.207,0,0,1,0,.307.458.458,0,0,1-.085.209.54.54,0,0,1-.183.137,1.08,1.08,0,0,1-.287.065l-1.823.248a1.157,1.157,0,0,1-.3,0,.377.377,0,0,1-.2-.085.343.343,0,0,1-.118-.183,1.175,1.175,0,0,1-.065-.3l-.712-10.237a1.259,1.259,0,0,1,0-.314.466.466,0,0,1,.091-.209.472.472,0,0,1,.189-.131,1.174,1.174,0,0,1,.294-.059Z" transform="translate(-38.582 -47.983)"/><path class="b" d="M54.858,44.955a.528.528,0,0,1,.2,0,.279.279,0,0,1,.137.072.291.291,0,0,1,.078.137,1.248,1.248,0,0,1,.039.216l.314,4.606a3.757,3.757,0,0,1-.1,1.209,2.418,2.418,0,0,1-1.346,1.587,3.548,3.548,0,0,1-1.241.287,3.417,3.417,0,0,1-1-.046,2.539,2.539,0,0,1-1.47-.843,3.485,3.485,0,0,1-.457-.764.778.778,0,0,1-.065-.209.234.234,0,0,1,0-.163.292.292,0,0,1,.1-.131,1.087,1.087,0,0,1,.183-.118l1.091-.483.065-.033h.287a.284.284,0,0,1,.1.052.417.417,0,0,1,.085.1l.078.137a2.5,2.5,0,0,0,.163.287.93.93,0,0,0,.2.2.691.691,0,0,0,.229.118,1.059,1.059,0,0,0,.287,0,.993.993,0,0,0,.34-.078.6.6,0,0,0,.229-.2.863.863,0,0,0,.124-.3,2.3,2.3,0,0,0,0-.425l-.327-4.651a1.189,1.189,0,0,1,0-.216.29.29,0,0,1,.065-.144.315.315,0,0,1,.131-.091.562.562,0,0,1,.209,0Z" transform="translate(-36.662 -41.857)"/><path class="b" d="M46.117,52.9a.524.524,0,0,1,.059.2.177.177,0,0,1-.111.242,1.042,1.042,0,0,1-.2.039l-1.176.091a3.3,3.3,0,0,1-.359,0,.781.781,0,0,1-.242-.065.508.508,0,0,1-.157-.131.646.646,0,0,1-.1-.216l-.314-.784-2.411.17-.189.83a.964.964,0,0,1-.085.229.508.508,0,0,1-.131.157.48.48,0,0,1-.229.1,1.529,1.529,0,0,1-.346.052l-1.189.091a.6.6,0,0,1-.216,0,.181.181,0,0,1-.124-.078.28.28,0,0,1-.039-.144.562.562,0,0,1,0-.209L40.636,46.1a1.146,1.146,0,0,1,.078-.209.365.365,0,0,1,.268-.2H41.2l1.293-.065h.216a.681.681,0,0,1,.163.052.5.5,0,0,1,.124.111.6.6,0,0,1,.1.176Zm-4.638-2.26,1.391-.091-.5-1.307a4.3,4.3,0,0,1-.176-.562c-.046-.176-.085-.346-.111-.49a3.171,3.171,0,0,1-.059-.359v-.157h-.1v.516a2.743,2.743,0,0,1-.033.5,5.68,5.68,0,0,1-.085.568l-.314,1.359" transform="translate(-32.715 -42.094)"/><path class="b" d="M45.28,63.182a.742.742,0,0,1,.294,0,.257.257,0,0,1,.163.111.357.357,0,0,1,.046.2,1.208,1.208,0,0,1,0,.307L43.947,74.49a1.024,1.024,0,0,1-.085.307.74.74,0,0,1-.157.2,1.056,1.056,0,0,1-.229.111,1.226,1.226,0,0,1-.307.065l-1.894.255a1.365,1.365,0,0,1-.327,0,.683.683,0,0,1-.255-.052.5.5,0,0,1-.189-.144.607.607,0,0,1-.131-.248L39.191,71.2q-.108-.382-.2-.764c-.059-.248-.1-.5-.15-.751s-.078-.5-.111-.738-.059-.483-.078-.725h-.137V69.7a3.857,3.857,0,0,1-.052.771c-.052.261-.052.536-.091.817l-.594,3.985a1.056,1.056,0,0,1-.111.314.565.565,0,0,1-.17.2.83.83,0,0,1-.242.118,1.737,1.737,0,0,1-.32.065l-1.96.261a2.832,2.832,0,0,1-.333,0,.745.745,0,0,1-.268-.046.548.548,0,0,1-.2-.144.787.787,0,0,1-.131-.268l-3.619-10.6a1.643,1.643,0,0,1-.085-.307.343.343,0,0,1,0-.229A.305.305,0,0,1,30.5,64.5a.947.947,0,0,1,.327-.072l2.162-.2a3.914,3.914,0,0,1,.392,0,.737.737,0,0,1,.287.065.481.481,0,0,1,.2.176.957.957,0,0,1,.137.314l1.1,4.39c.052.216.1.483.157.764s.1.581.144.869.078.562.111.8.046.425.052.542h.118V69.917a5.579,5.579,0,0,1,.078-.8l.719-4.573a.9.9,0,0,1,.1-.34.583.583,0,0,1,.176-.2.75.75,0,0,1,.268-.111,3.309,3.309,0,0,1,.353-.059l1.823-.163a3.062,3.062,0,0,1,.346,0,.652.652,0,0,1,.274.065.535.535,0,0,1,.209.17,1.033,1.033,0,0,1,.15.307L41.5,68.48c.072.229.131.5.189.771s.111.562.157.836.085.536.118.758.052.405.065.529h.124V69.205a5.039,5.039,0,0,1,.039-.79l.366-4.41a1.415,1.415,0,0,1,.085-.327.547.547,0,0,1,.163-.2.77.77,0,0,1,.261-.111,3.676,3.676,0,0,1,.372-.059Z" transform="translate(-29.859 -48.175)"/><path class="b" d="M34.916,45.907a1.411,1.411,0,0,1,.235,0,.356.356,0,0,1,.157.078.315.315,0,0,1,.1.144,1.069,1.069,0,0,1,.065.248L35.55,47.4a.75.75,0,0,1,0,.242.345.345,0,0,1-.072.157.415.415,0,0,1-.144.091,1.286,1.286,0,0,1-.229.039l-3.064.163.1,1.307,2.45-.144a1.416,1.416,0,0,1,.235,0,.431.431,0,0,1,.157.072.415.415,0,0,1,.091.144.679.679,0,0,1,.046.229l.078,1.019a.75.75,0,0,1,0,.242.289.289,0,0,1-.072.157.261.261,0,0,1-.144.091.673.673,0,0,1-.229.039l-2.443.163.176,2.326a.672.672,0,0,1,0,.229.289.289,0,0,1-.072.157.261.261,0,0,1-.144.091.888.888,0,0,1-.229.046l-1.307.1a.751.751,0,0,1-.242,0,.308.308,0,0,1-.163-.072.354.354,0,0,1-.1-.144,1.286,1.286,0,0,1-.039-.229l-.575-7.29a.672.672,0,0,1,0-.229.356.356,0,0,1,.078-.157.278.278,0,0,1,.15-.091,1.474,1.474,0,0,1,.235-.039Z" transform="translate(-29.615 -42.189)"/></g></g></svg>